<svg version="1.1" id="Layer_1" xmlns="http://www.w3.org/2000/svg" xmlns:xlink="http://www.w3.org/1999/xlink" x="0px" y="0px"
	 width="100%" viewBox="0 0 500 500" enable-background="new 0 0 500 500" xml:space="preserve">
<path fill="#000000" opacity="1.000000" stroke="none" 
	d="
M269.000000,501.000000 
	C179.333359,501.000000 90.166710,501.000000 1.000048,501.000000 
	C1.000032,334.333405 1.000032,167.666794 1.000016,1.000137 
	C167.666565,1.000092 334.333130,1.000092 500.999756,1.000046 
	C500.999847,167.666519 500.999847,334.333038 500.999939,500.999786 
	C423.833344,501.000000 346.666656,501.000000 269.000000,501.000000 
M202.497101,252.964752 
	C202.497101,252.964752 202.051987,252.858871 201.934113,252.188995 
	C198.486832,246.108429 192.956207,243.440750 186.276443,243.077698 
	C176.166443,242.528198 167.271164,245.601273 159.864349,252.658249 
	C159.001541,253.480286 158.048828,254.207977 156.550110,255.477051 
	C156.550110,251.532104 156.550110,248.428864 156.550110,245.262421 
	C151.989075,245.262421 147.738312,245.262421 143.308899,245.262421 
	C140.674377,267.221161 138.069305,288.934631 135.439743,310.852112 
	C140.601837,310.852112 145.231003,310.852112 150.182770,310.852112 
	C151.468781,300.520844 152.690506,290.293884 154.027542,280.082001 
	C155.324997,270.172577 159.314804,261.802887 168.658234,257.119629 
	C173.773682,254.555557 179.336319,253.923477 184.361130,257.361694 
	C189.133652,260.627289 188.222824,265.780579 187.831070,270.606934 
	C187.763916,271.434204 187.544312,272.247925 187.442810,273.073761 
	C185.906113,285.577332 184.377365,298.081818 182.821808,310.790009 
	C187.994232,310.790009 192.758621,310.790009 197.725784,310.790009 
	C199.528748,296.218384 201.308701,281.832886 203.088654,267.447388 
	C210.121796,308.310974 253.910812,321.645477 287.964600,305.075989 
	C287.964600,307.092041 287.964600,308.977020 287.964600,310.811798 
	C292.871796,310.811798 297.491272,310.811798 302.431763,310.811798 
	C304.679932,292.775696 306.909760,274.886932 309.100647,257.310242 
	C312.020508,257.310242 314.258545,257.310242 316.646179,257.310242 
	C314.494507,275.263763 312.380707,292.900940 310.237305,310.785400 
	C315.262634,310.785400 320.041718,310.785400 324.989075,310.785400 
	C327.167999,292.880310 329.334747,275.075348 331.492523,257.343994 
	C335.240967,257.343994 338.598328,257.343994 342.096741,257.343994 
	C332.601044,277.093262 334.536530,294.216888 347.012451,304.600525 
	C358.468079,314.135010 380.440002,314.343628 391.930481,305.601929 
	C390.176483,302.111481 388.409210,298.594604 386.640350,295.074615 
	C371.733490,302.919708 359.190399,300.339752 353.260986,288.193604 
	C371.111237,283.179993 388.915253,278.179352 406.735046,273.174286 
	C406.381287,271.083405 406.200043,269.607361 405.876617,268.163177 
	C402.471161,252.955612 393.227844,244.011551 378.666718,242.256592 
	C369.865387,241.195816 361.426819,242.683060 353.603088,247.096771 
	C352.702515,247.604828 351.601227,247.757080 350.378906,248.141632 
	C350.576294,246.821854 350.704224,245.966660 350.887085,244.743942 
	C344.797791,244.743942 339.011383,244.743942 333.014008,244.743942 
	C334.190063,235.231979 335.323639,226.063614 336.480225,216.709167 
	C331.244690,216.709167 326.652924,216.709167 321.674774,216.709167 
	C320.446991,226.167816 319.240814,235.460327 318.006104,244.972473 
	C310.272705,244.972473 303.140900,244.972473 295.627960,244.972473 
	C293.324432,263.560760 291.053497,281.886139 288.611603,301.591278 
	C286.845215,296.966614 285.578094,293.649139 284.264130,290.208954 
	C280.435028,291.790253 276.984711,293.391785 273.415771,294.659424 
	C254.554642,301.358459 233.958527,294.389069 224.588898,278.147736 
	C219.444138,269.229736 218.960083,259.533051 219.992325,249.580826 
	C221.968796,230.524780 234.815384,215.063095 252.071945,211.208923 
	C266.838562,207.910873 280.040009,211.205917 291.815247,221.357895 
	C294.533386,216.246841 297.072021,211.473328 299.565338,206.784973 
	C292.223938,200.753906 283.183960,196.794830 271.325623,195.479660 
	C239.277802,191.925293 215.203201,207.937927 206.897430,236.003128 
	C205.262802,241.526505 204.243835,247.232086 202.497101,252.964752 
M119.374390,262.713501 
	C117.446556,278.667450 115.518723,294.621399 113.572807,310.724976 
	C119.079819,310.724976 124.135849,310.724976 129.440109,310.724976 
	C134.144287,272.452087 138.817978,234.427109 143.505646,196.288513 
	C137.937408,196.288513 132.881348,196.288513 127.581947,196.288513 
	C124.886177,218.310837 122.222237,240.073074 119.374390,262.713501 
M300.472412,217.819229 
	C297.246857,220.344040 295.606293,223.894623 297.617493,227.366623 
	C298.871429,229.531296 302.044067,231.229523 304.651825,231.812668 
	C308.489685,232.670883 312.176453,230.786682 313.568085,227.096420 
	C314.427612,224.817200 314.316223,221.333557 313.108398,219.301239 
	C311.084442,215.895615 307.186462,215.444077 303.361328,216.360489 
	C302.569366,216.550247 301.839813,217.000671 300.472412,217.819229 
z"/>
<path fill="#FBFBFB" opacity="1.000000" stroke="none" 
	d="
M202.940948,252.853653 
	C204.243835,247.232086 205.262802,241.526505 206.897430,236.003128 
	C215.203201,207.937927 239.277802,191.925293 271.325623,195.479660 
	C283.183960,196.794830 292.223938,200.753906 299.565338,206.784973 
	C297.072021,211.473328 294.533386,216.246841 291.815247,221.357895 
	C280.040009,211.205917 266.838562,207.910873 252.071945,211.208923 
	C234.815384,215.063095 221.968796,230.524780 219.992325,249.580826 
	C218.960083,259.533051 219.444138,269.229736 224.588898,278.147736 
	C233.958527,294.389069 254.554642,301.358459 273.415771,294.659424 
	C276.984711,293.391785 280.435028,291.790253 284.264130,290.208954 
	C285.578094,293.649139 286.845215,296.966614 288.611603,301.591278 
	C291.053497,281.886139 293.324432,263.560760 295.627960,244.972473 
	C303.140900,244.972473 310.272705,244.972473 318.006104,244.972473 
	C319.240814,235.460327 320.446991,226.167816 321.674774,216.709167 
	C326.652924,216.709167 331.244690,216.709167 336.480225,216.709167 
	C335.323639,226.063614 334.190063,235.231979 333.014008,244.743942 
	C339.011383,244.743942 344.797791,244.743942 350.887085,244.743942 
	C350.704224,245.966660 350.576294,246.821854 350.378906,248.141632 
	C351.601227,247.757080 352.702515,247.604828 353.603088,247.096771 
	C361.426819,242.683060 369.865387,241.195816 378.666718,242.256592 
	C393.227844,244.011551 402.471161,252.955612 405.876617,268.163177 
	C406.200043,269.607361 406.381287,271.083405 406.735046,273.174286 
	C388.915253,278.179352 371.111237,283.179993 353.260986,288.193604 
	C359.190399,300.339752 371.733490,302.919708 386.640350,295.074615 
	C388.409210,298.594604 390.176483,302.111481 391.930481,305.601929 
	C380.440002,314.343628 358.468079,314.135010 347.012451,304.600525 
	C334.536530,294.216888 332.601044,277.093262 342.096741,257.343994 
	C338.598328,257.343994 335.240967,257.343994 331.492523,257.343994 
	C329.334747,275.075348 327.167999,292.880310 324.989075,310.785400 
	C320.041718,310.785400 315.262634,310.785400 310.237305,310.785400 
	C312.380707,292.900940 314.494507,275.263763 316.646179,257.310242 
	C314.258545,257.310242 312.020508,257.310242 309.100647,257.310242 
	C306.909760,274.886932 304.679932,292.775696 302.431763,310.811798 
	C297.491272,310.811798 292.871796,310.811798 287.964600,310.811798 
	C287.964600,308.977020 287.964600,307.092041 287.964600,305.075989 
	C253.910812,321.645477 210.121796,308.310974 203.088654,267.447388 
	C201.308701,281.832886 199.528748,296.218384 197.725784,310.790009 
	C192.758621,310.790009 187.994232,310.790009 182.821808,310.790009 
	C184.377365,298.081818 185.906113,285.577332 187.442810,273.073761 
	C187.544312,272.247925 187.763916,271.434204 187.831070,270.606934 
	C188.222824,265.780579 189.133652,260.627289 184.361130,257.361694 
	C179.336319,253.923477 173.773682,254.555557 168.658234,257.119629 
	C159.314804,261.802887 155.324997,270.172577 154.027542,280.082001 
	C152.690506,290.293884 151.468781,300.520844 150.182770,310.852112 
	C145.231003,310.852112 140.601837,310.852112 135.439743,310.852112 
	C138.069305,288.934631 140.674377,267.221161 143.308899,245.262421 
	C147.738312,245.262421 151.989075,245.262421 156.550110,245.262421 
	C156.550110,248.428864 156.550110,251.532104 156.550110,255.477051 
	C158.048828,254.207977 159.001541,253.480286 159.864349,252.658249 
	C167.271164,245.601273 176.166443,242.528198 186.276443,243.077698 
	C192.956207,243.440750 198.486832,246.108429 202.002625,252.805725 
	C202.424225,253.790527 202.777328,254.158615 203.130432,254.526688 
	C203.067276,253.969009 203.004105,253.411331 202.940948,252.853653 
M375.584747,272.031891 
	C380.494904,270.628326 385.405060,269.224762 390.315399,267.821136 
	C387.150970,257.259094 378.919586,252.546890 368.187500,254.846985 
	C357.044983,257.235046 349.684967,267.635620 351.338593,278.902985 
	C359.172913,276.663940 366.982025,274.432068 375.584747,272.031891 
z"/>
<path fill="#FBFBFB" opacity="1.000000" stroke="none" 
	d="
M119.466339,262.274414 
	C122.222237,240.073074 124.886177,218.310837 127.581947,196.288513 
	C132.881348,196.288513 137.937408,196.288513 143.505646,196.288513 
	C138.817978,234.427109 134.144287,272.452087 129.440109,310.724976 
	C124.135849,310.724976 119.079819,310.724976 113.572807,310.724976 
	C115.518723,294.621399 117.446556,278.667450 119.466339,262.274414 
z"/>
<path fill="#F8F8F8" opacity="1.000000" stroke="none" 
	d="
M300.776978,217.575089 
	C301.839813,217.000671 302.569366,216.550247 303.361328,216.360489 
	C307.186462,215.444077 311.084442,215.895615 313.108398,219.301239 
	C314.316223,221.333557 314.427612,224.817200 313.568085,227.096420 
	C312.176453,230.786682 308.489685,232.670883 304.651825,231.812668 
	C302.044067,231.229523 298.871429,229.531296 297.617493,227.366623 
	C295.606293,223.894623 297.246857,220.344040 300.776978,217.575089 
z"/>
<path fill="#FBFBFB" opacity="1.000000" stroke="none" 
	d="
M202.719025,252.909210 
	C203.004105,253.411331 203.067276,253.969009 203.130432,254.526688 
	C202.777328,254.158615 202.424225,253.790527 202.061554,253.140656 
	C202.051987,252.858871 202.497101,252.964752 202.719025,252.909210 
z"/>
<path fill="#050505" opacity="1.000000" stroke="none" 
	d="
M375.187958,272.116028 
	C366.982025,274.432068 359.172913,276.663940 351.338593,278.902985 
	C349.684967,267.635620 357.044983,257.235046 368.187500,254.846985 
	C378.919586,252.546890 387.150970,257.259094 390.315399,267.821136 
	C385.405060,269.224762 380.494904,270.628326 375.187958,272.116028 
z"/>
</svg>