<?xml version="1.0" standalone="no"?>
<!DOCTYPE svg PUBLIC "-//W3C//DTD SVG 20010904//EN"
 "http://www.w3.org/TR/2001/REC-SVG-20010904/DTD/svg10.dtd">
<svg version="1.0" xmlns="http://www.w3.org/2000/svg"
 width="300.000000pt" height="192.000000pt" viewBox="0 0 300.000000 192.000000"
 preserveAspectRatio="xMidYMid meet">
<metadata>
Created by potrace 1.10, written by Peter Selinger 2001-2011
</metadata>
<g transform="translate(0.000000,192.000000) scale(0.100000,-0.100000)"
fill="#000000" stroke="none">
<path d="M540 1910 c0 -4 -49 -6 -110 -3 l-110 4 0 -28 c1 -23 2 -25 10 -11
10 16 44 19 67 5 6 -4 13 -1 16 5 3 10 7 10 17 1 7 -6 10 -19 6 -29 -5 -13 -9
-15 -18 -6 -9 9 -16 8 -30 -5 -11 -10 -18 -11 -18 -5 0 13 -38 16 -57 4 -17
-11 -28 -83 -14 -92 9 -5 9 -13 0 -33 -9 -20 -9 -33 1 -57 7 -16 16 -30 20
-30 5 0 7 -8 5 -17 -1 -10 0 -12 2 -5 3 9 21 12 56 10 41 -2 52 -7 55 -22 3
-15 0 -18 -17 -13 -12 3 -28 -1 -36 -10 -8 -8 -15 -10 -15 -4 0 6 -17 11 -37
11 -28 0 -34 -3 -25 -12 8 -8 6 -17 -9 -36 -20 -25 -20 -26 0 -45 15 -15 32
-20 73 -19 29 1 62 3 73 6 11 2 28 5 38 5 15 1 15 4 5 21 -12 19 -14 19 -25 3
-12 -15 -13 -15 -13 5 0 12 7 23 15 24 8 0 21 1 28 2 6 1 11 -7 9 -17 -2 -10
5 -20 15 -23 10 -3 33 -13 51 -21 25 -11 49 -13 95 -7 34 4 67 6 72 5 6 -2 84
-3 175 -2 124 1 168 5 180 16 9 9 21 10 30 5 9 -5 43 -12 76 -15 57 -7 63 -6
77 16 15 21 15 24 0 41 -12 13 -31 18 -71 18 -51 0 -54 1 -49 23 5 18 1 16
-24 -13 -26 -31 -31 -33 -44 -19 -14 14 -14 17 5 34 15 14 20 15 20 4 1 -10 4
-9 11 4 12 21 1 46 -12 26 -6 -11 -9 -10 -15 4 -3 9 -17 17 -29 17 -26 0 -41
15 -25 25 5 3 10 17 10 31 0 19 -7 28 -30 35 l-29 11 27 23 27 23 -22 24 c-13
13 -23 27 -23 30 0 8 42 -3 58 -15 7 -6 11 -19 9 -29 -9 -32 30 -42 183 -44
174 -3 216 2 199 23 -15 17 3 39 21 28 9 -6 9 -10 -1 -16 -11 -7 -11 -9 -1 -9
7 0 11 -4 8 -9 -8 -12 85 -23 134 -15 23 4 37 10 32 13 -14 8 -19 37 -7 36 6
0 10 -5 9 -11 -1 -5 12 -18 27 -27 l29 -16 0 29 c0 17 5 30 11 30 7 0 10 -12
7 -30 -3 -19 -1 -27 5 -21 5 5 7 19 5 32 -4 30 -44 39 -51 12 -4 -16 -5 -17
-6 0 0 9 -7 17 -13 17 -33 2 -175 2 -194 1 -14 -1 -26 -11 -33 -29 -10 -25
-16 -27 -51 -24 -30 3 -40 8 -40 22 0 19 46 25 66 9 8 -6 14 -4 17 5 4 10 -8
15 -51 19 -31 2 -64 1 -73 -4 -21 -11 -93 15 -97 35 -2 9 2 16 8 16 7 0 9 -7
6 -16 -3 -8 -2 -12 4 -9 6 3 10 15 10 25 0 14 -5 18 -17 13 -12 -5 -15 -2 -10
10 7 18 5 18 -48 19 -130 2 -185 -3 -185 -16 0 -8 -5 -16 -12 -18 -7 -3 -6 -7
5 -11 12 -5 17 -1 17 13 0 16 7 18 47 17 35 -2 49 -6 51 -18 4 -22 -44 -31
-63 -12 -12 12 -15 10 -21 -11 -6 -27 -29 -36 -68 -29 -24 5 -24 6 -9 29 14
23 14 26 -2 44 -12 13 -29 20 -49 19 -17 -1 -45 1 -62 5 -24 5 -33 3 -37 -8
-8 -19 -36 -21 -42 -3 -6 14 -185 21 -185 7z m-35 -33 c0 -9 9 -23 19 -30 11
-8 16 -19 12 -25 -10 -16 -36 -15 -36 1 0 6 -7 21 -16 32 -13 17 -16 18 -24 5
-8 -12 -10 -11 -10 7 0 12 8 23 18 26 26 7 37 2 37 -16z m71 8 c4 -9 11 -12
18 -8 20 14 51 9 54 -10 3 -16 -3 -18 -47 -16 -46 2 -51 5 -51 26 0 26 18 31
26 8z m140 -11 c-3 -8 -1 -14 5 -14 6 0 7 -5 3 -12 -5 -8 -11 -6 -19 5 -7 10
-18 17 -26 16 -10 0 -11 -2 -1 -6 6 -2 10 -9 6 -14 -7 -13 -24 -1 -24 17 0 15
39 35 53 27 5 -3 6 -11 3 -19z m76 1 c-5 -28 -17 -33 -26 -9 -7 19 1 34 18 34
9 0 12 -9 8 -25z m357 2 c-3 -25 1 -38 11 -32 12 7 40 -12 40 -26 0 -5 -27 -8
-60 -7 -60 2 -86 18 -30 18 17 0 30 2 30 4 0 18 -15 36 -29 35 -10 0 -11 -2
-3 -6 6 -2 10 -9 6 -14 -7 -13 -24 -1 -24 17 0 15 39 35 53 27 4 -2 7 -10 6
-16z m-241 -8 c4 -22 -54 -31 -70 -12 -9 11 -13 11 -19 1 -10 -16 -23 -4 -16
15 8 22 101 17 105 -4z m-576 -88 c7 19 68 24 68 6 0 -8 3 -7 9 2 11 16 31 6
31 -16 0 -10 -6 -14 -20 -10 -11 3 -27 -1 -35 -10 -8 -8 -15 -10 -15 -4 0 6
-15 11 -34 11 -29 0 -33 3 -31 23 4 33 6 35 14 7 5 -19 8 -21 13 -9z m174 1
c1 -23 -21 -30 -29 -9 -4 9 -8 8 -16 -3 -9 -12 -11 -11 -11 7 0 37 54 41 56 5z
m74 11 c0 -10 3 -14 8 -8 4 6 19 11 35 12 21 1 27 -4 27 -19 0 -17 -6 -19 -50
-17 -45 2 -50 5 -50 26 0 14 6 23 15 23 8 0 15 -8 15 -17z m136 -9 c-3 -8 -1
-14 4 -14 6 0 10 8 10 18 0 16 8 18 50 18 44 -1 50 -3 50 -21 0 -19 -7 -21
-65 -23 -51 -1 -65 1 -65 13 0 9 -6 12 -16 8 -13 -5 -13 -7 -2 -14 10 -7 9 -9
-4 -9 -26 0 -22 29 5 39 27 10 40 4 33 -15z m257 14 c30 0 37 -3 37 -19 0 -15
-7 -19 -35 -19 -21 0 -35 5 -36 13 0 10 -2 10 -6 0 -8 -21 -23 -15 -23 10 0
17 -2 19 -9 7 -6 -8 -7 -18 -5 -22 3 -4 1 -8 -4 -8 -13 0 -24 29 -16 42 4 5
18 6 33 2 14 -4 43 -7 64 -6z m312 -8 c12 0 26 5 33 12 9 9 12 6 12 -15 0 -30
-2 -31 -48 -18 -20 6 -30 6 -27 0 4 -5 2 -9 -3 -9 -13 0 -24 29 -16 42 4 6 10
6 17 -1 6 -6 20 -11 32 -11z m215 0 c0 -11 7 -20 15 -20 8 0 12 6 9 14 -3 8
-1 17 5 21 7 4 11 -3 11 -17 1 -20 2 -21 11 -5 13 23 29 22 29 -3 0 -17 -7
-20 -44 -20 -39 0 -44 3 -48 25 -3 14 -1 25 3 25 5 0 9 -9 9 -20z m-350 -12
c0 -20 -30 -26 -31 -5 0 10 -2 10 -6 0 -7 -20 -23 -15 -23 6 0 15 7 19 30 19
22 -1 30 -6 30 -20z m66 6 c-3 -7 0 -15 7 -17 7 -2 -5 -5 -25 -5 -30 0 -38 4
-38 17 0 13 8 18 30 18 21 0 29 -4 26 -13z m402 -7 c2 -10 -3 -17 -12 -17 -10
0 -16 9 -16 21 0 24 23 21 28 -4z m-1069 -31 c6 -7 8 -22 4 -32 -7 -18 -6 -18
11 -1 23 22 61 23 52 1 -3 -9 -6 -22 -6 -30 0 -27 -20 -14 -21 14 0 24 -1 25
-9 7 -11 -28 7 -44 55 -49 58 -6 91 -26 87 -53 -2 -13 -7 -23 -12 -23 -11 0
-21 30 -14 41 3 6 -5 7 -20 3 -16 -4 -26 -2 -26 5 0 17 -91 14 -110 -4 -15
-14 -18 -14 -30 0 -11 13 -11 20 0 40 10 20 11 30 2 51 -19 39 10 63 37 30z
m372 -2 c38 -6 45 -18 11 -20 -10 0 -34 -4 -55 -8 -48 -11 -71 6 -41 29 10 8
25 12 32 10 8 -3 32 -8 53 -11z m-592 -51 c1 13 10 17 36 17 21 0 35 -5 35
-12 0 -10 3 -9 9 1 11 16 31 6 31 -16 0 -10 -6 -14 -20 -10 -11 3 -27 -1 -35
-10 -8 -8 -15 -10 -15 -4 0 6 -15 11 -34 11 -29 0 -33 3 -31 23 4 33 6 34 15
7 5 -17 8 -19 9 -7z m177 -1 c1 -23 -21 -30 -29 -9 -4 9 -8 8 -16 -3 -9 -12
-11 -11 -11 7 0 37 54 41 56 5z m183 1 c1 18 31 25 31 6 0 -6 7 -3 16 6 10 9
20 13 23 8 3 -5 21 -8 39 -8 24 1 32 -3 32 -16 0 -15 -11 -17 -84 -18 -80 -1
-83 0 -81 22 4 33 6 34 15 7 5 -17 8 -19 9 -7z m246 8 c-3 -5 0 -13 6 -17 7
-4 9 -3 5 4 -3 6 -1 14 5 18 10 6 28 -11 29 -28 0 -5 -16 -8 -35 -8 -28 0 -35
4 -35 20 0 11 7 20 16 20 8 0 13 -4 9 -9z m75 -46 c11 -13 8 -15 -14 -15 -25
0 -33 10 -19 23 10 11 19 8 33 -8z m-529 -10 c0 -13 -41 -19 -41 -7 0 11 20
22 33 18 5 -1 8 -6 8 -11z m481 -2 c23 -18 52 -26 86 -25 36 2 43 -18 17 -44
-13 -14 -15 -14 -15 0 0 8 -5 18 -12 22 -6 4 -8 3 -4 -4 9 -15 -13 -27 -26
-14 -6 6 -16 8 -23 5 -10 -3 -12 3 -9 19 3 19 2 19 -8 -4 -7 -16 -15 -28 -20
-28 -11 0 -10 7 3 32 6 11 8 22 5 25 -3 3 -13 -11 -22 -31 -16 -32 -22 -36
-56 -36 -21 0 -38 5 -38 10 0 6 -18 10 -40 10 -25 0 -40 5 -41 13 0 10 -2 10
-6 0 -7 -20 -23 -15 -23 6 0 15 8 18 50 18 36 0 53 -4 60 -16 6 -11 9 -12 10
-3 0 26 -30 44 -65 40 -42 -5 -33 9 10 15 49 7 153 1 167 -10z m-457 -34 c0
-13 65 -52 73 -44 9 9 -10 24 -23 19 -10 -4 -12 0 -8 15 6 25 19 35 27 23 3
-5 21 -8 40 -5 41 4 57 -14 31 -34 -17 -12 -18 -13 -1 -13 9 0 14 -5 11 -10
-4 -6 -27 -9 -51 -6 -30 2 -50 -1 -59 -10 -14 -14 -45 -9 -45 7 0 4 -24 6 -52
4 -50 -5 -51 -4 -18 6 40 12 57 25 46 36 -4 4 -11 1 -16 -7 -8 -12 -10 -11
-10 7 0 12 8 23 18 26 25 7 37 2 37 -14z m216 -40 c8 0 6 -4 -6 -9 -34 -15
-45 -11 -43 15 2 22 4 23 18 10 9 -8 23 -15 31 -16z m-392 -56 c1 15 9 18 53
15 41 -2 54 -7 56 -20 3 -13 -3 -18 -20 -17 -13 1 -27 1 -33 -1 -5 -1 -26 -2
-46 -1 -31 1 -35 4 -33 24 4 33 5 34 14 7 6 -18 8 -20 9 -7z m444 12 c4 -6 11
-4 17 5 6 10 10 11 10 3 0 -7 7 -10 15 -7 8 4 15 1 15 -5 0 -6 -6 -11 -12 -11
-10 0 -9 -3 1 -9 8 -5 -4 -9 -33 -9 -34 -1 -49 3 -53 15 -6 14 -8 14 -20 -3
-12 -17 -13 -17 -13 3 0 29 54 42 73 18z m97 6 c0 11 2 11 10 -1 6 -9 10 -10
10 -3 0 6 9 11 19 10 22 -1 37 -47 15 -47 -8 0 -11 6 -8 15 4 8 1 15 -5 15 -6
0 -11 -7 -11 -15 0 -18 -20 -20 -21 -2 0 10 -2 10 -6 0 -9 -24 -33 -14 -33 13
0 22 2 25 15 14 12 -10 15 -10 15 1z m170 -11 c0 -11 4 -20 10 -20 5 0 7 7 4
15 -4 9 0 15 10 15 10 0 16 -8 16 -21 0 -30 -54 -23 -58 9 -2 12 1 22 7 22 6
0 11 -9 11 -20z m-352 -12 c2 -13 -3 -18 -20 -18 -13 0 -34 0 -47 -1 -13 0
-28 4 -34 10 -18 18 3 29 50 27 37 -1 49 -5 51 -18z m322 2 c0 -11 -7 -20 -15
-20 -8 0 -15 9 -15 20 0 11 7 20 15 20 8 0 15 -9 15 -20z m258 -2 c3 -14 -4
-17 -35 -16 -21 1 -41 6 -45 12 -5 8 -8 7 -8 -1 0 -7 -4 -13 -10 -13 -5 0 -10
9 -10 19 0 17 7 19 52 18 41 -2 53 -6 56 -19z"/>
<path d="M1379 1534 c-7 -8 -21 -13 -31 -11 -10 3 -18 1 -18 -4 0 -5 7 -9 16
-9 10 0 14 -6 10 -15 -11 -31 10 -14 26 20 17 39 17 43 -3 19z"/>
<path d="M1432 1542 c-12 -2 -29 -16 -37 -33 -15 -29 -15 -29 12 -29 16 0 38
-3 51 -6 18 -5 22 -2 22 17 0 19 -2 21 -10 9 -7 -11 -12 -12 -21 -3 -20 20 -1
31 48 29 38 -1 48 -5 51 -19 3 -13 -2 -18 -15 -17 -30 4 -43 1 -43 -9 0 -11
441 -8 458 3 6 4 21 1 32 -6 17 -11 22 -11 30 2 11 18 13 47 3 36 -5 -4 -8
-13 -8 -19 0 -5 -5 -12 -12 -14 -9 -3 -10 4 -3 26 7 24 6 31 -6 31 -8 0 -14
-7 -14 -15 0 -8 -4 -15 -10 -15 -5 0 -10 6 -10 14 0 9 -15 17 -37 20 -37 6
-436 4 -481 -2z m246 -16 c6 -3 12 0 15 6 3 10 7 10 20 -1 14 -11 17 -11 17 0
0 11 2 11 10 -1 6 -10 10 -11 10 -2 0 6 4 12 10 12 5 0 6 -9 1 -22 -6 -16 -18
-22 -51 -25 -28 -3 -46 0 -51 9 -7 10 -9 10 -9 1 0 -8 -13 -13 -30 -13 -22 0
-30 5 -30 18 -1 15 -2 15 -15 -2 -15 -19 -15 -19 -15 1 0 12 8 23 18 26 23 5
88 1 100 -7z m222 -6 c0 -11 4 -20 10 -20 5 0 7 7 4 15 -4 9 0 15 10 15 10 0
16 -8 16 -21 0 -16 -5 -20 -26 -17 -30 3 -56 48 -29 48 8 0 15 -9 15 -20z
m-32 -13 c2 -10 -3 -17 -12 -17 -10 0 -16 9 -16 21 0 24 23 21 28 -4z"/>
<path d="M603 1363 c-29 -20 -29 -45 -1 -58 25 -12 31 -25 19 -44 -8 -12 -14
-10 -35 7 -15 11 -22 22 -16 24 8 2 8 11 1 28 -5 14 -10 18 -10 9 -1 -10 -13
-16 -40 -17 -37 -3 -38 -2 -35 26 l3 29 -79 0 c-44 -1 -80 -4 -80 -9 0 -4 16
-8 35 -8 21 0 35 -5 35 -12 0 -10 2 -10 8 -2 4 7 18 14 31 15 19 3 25 -1 26
-18 1 -13 -2 -23 -7 -23 -4 0 -8 7 -8 15 0 8 -7 15 -15 15 -18 0 -20 -16 -2
-24 6 -3 1 -4 -13 -3 -14 1 -28 7 -32 12 -5 6 -8 5 -8 -2 0 -19 -38 -16 -49 5
-9 15 -10 15 -11 -4 0 -24 38 -39 70 -29 10 3 21 1 25 -5 4 -6 -4 -10 -19 -10
-14 0 -26 -5 -26 -11 0 -6 18 -9 47 -8 42 3 47 1 48 -19 1 -12 -2 -22 -7 -22
-4 0 -8 7 -8 15 0 9 -6 12 -16 8 -13 -5 -13 -7 -2 -14 10 -7 9 -9 -4 -9 -9 0
-21 7 -26 16 -8 14 -10 13 -15 -5 -6 -24 -9 -23 106 -23 46 1 84 6 93 13 11 9
21 9 40 0 27 -12 106 -15 88 -3 -7 4 -14 16 -17 27 -4 17 -5 16 -7 -5 -1 -23
-2 -23 -10 -5 -8 18 -9 18 -9 2 -1 -14 -6 -17 -23 -11 -34 10 -35 14 -8 34 14
11 26 15 28 10 2 -6 15 -7 28 -4 20 5 24 2 24 -15 0 -39 46 -51 207 -52 86 0
160 4 176 10 16 6 33 8 39 5 15 -10 309 -11 315 -1 3 5 12 5 22 1 28 -11 234
-14 247 -3 9 7 19 7 31 0 11 -5 61 -8 113 -7 99 3 142 13 120 26 -15 9 -4 30
15 30 9 0 12 -7 9 -17 -4 -14 -2 -13 7 2 7 11 17 23 22 27 14 8 37 -16 37 -39
0 -14 -2 -15 -9 -4 -7 11 -9 11 -14 0 -3 -8 -6 -3 -7 11 -1 23 -2 23 -9 5 -5
-12 -4 -23 3 -27 16 -11 78 -9 96 2 11 7 7 8 -15 4 -27 -5 -30 -3 -31 20 -1
14 2 26 7 26 5 0 9 -9 9 -21 0 -11 5 -17 10 -14 6 4 7 11 4 17 -5 8 -1 9 12 4
15 -5 16 -4 7 5 -16 16 -85 27 -112 17 -14 -5 -39 -4 -62 2 -51 14 -199 2
-221 -18 -16 -13 -20 -13 -44 3 -50 33 -234 32 -234 -1 0 -8 -7 -14 -15 -14
-8 0 -15 -9 -15 -20 0 -11 -7 -20 -15 -20 -28 0 -18 45 13 57 25 10 23 11 -25
12 -52 1 -53 0 -52 -26 1 -17 3 -21 6 -10 7 25 33 21 33 -5 0 -19 -2 -20 -10
-8 -6 10 -10 11 -10 3 0 -7 -8 -13 -19 -13 -15 0 -18 6 -15 30 l4 31 -88 -2
c-90 -3 -156 12 -165 36 -8 18 3 55 16 55 6 0 7 3 4 6 -4 4 -13 1 -22 -6 -17
-14 -20 -56 -4 -66 16 -10 -9 -23 -32 -17 -22 6 -23 7 -7 33 10 16 10 23 -3
35 -14 15 -15 13 -11 -13 2 -17 -1 -33 -8 -37 -7 -5 -11 -1 -10 11 7 63 19 60
-197 61 -163 1 -202 -2 -220 -14z m119 -28 c3 -16 1 -25 -7 -25 -13 0 -27 45
-17 54 9 9 20 -3 24 -29z m208 8 l0 -27 16 22 c20 29 34 28 34 -2 0 -21 -5
-25 -30 -24 -22 1 -30 6 -30 19 0 23 -27 15 -33 -9 -3 -12 -5 -10 -6 6 -1 13
5 22 14 22 8 0 15 5 15 10 0 6 5 10 10 10 6 0 10 -12 10 -27z m-290 5 c0 6 5
12 11 12 5 0 8 -4 5 -9 -4 -5 3 -7 14 -4 11 3 20 0 20 -6 0 -6 -6 -11 -12 -11
-9 0 -8 -4 2 -10 11 -8 9 -9 -12 -8 -16 1 -28 7 -28 13 0 5 -5 3 -10 -5 -7
-12 -10 -8 -10 15 0 23 3 27 10 15 6 -10 10 -11 10 -2z m222 -6 c18 -18 0 -29
-49 -28 -35 1 -48 5 -48 16 0 8 8 14 17 14 10 -1 15 2 12 7 -7 12 55 4 68 -9z
m-99 -67 c-6 -18 -34 -16 -41 3 -2 7 6 12 22 12 19 0 24 -4 19 -15z m380 2 c4
3 7 -1 7 -10 0 -9 -6 -17 -14 -17 -8 0 -16 -5 -18 -12 -6 -16 -158 -21 -158
-5 0 8 -3 8 -8 2 -13 -18 -38 -16 -39 4 -2 25 21 30 101 24 62 -5 82 -15 54
-26 -10 -4 -10 -6 0 -6 7 -1 15 6 18 14 4 8 13 15 21 15 10 0 13 6 9 16 -5 13
-4 14 7 6 8 -7 17 -9 20 -5z m-323 -24 c1 -24 3 -26 13 -13 18 23 63 22 64 -1
2 -16 -5 -19 -42 -17 -34 1 -45 5 -47 19 -2 14 -7 16 -18 9 -13 -9 -13 -11 0
-21 13 -8 12 -10 -4 -7 -27 4 -32 28 -7 35 12 3 21 9 21 14 0 5 5 9 10 9 6 0
10 -12 10 -27z m831 -6 c1 -17 2 -18 6 -4 6 24 33 22 33 -3 0 -30 -48 -27 -59
3 -5 12 -7 25 -4 30 8 13 23 -3 24 -26z m250 0 c0 -15 2 -17 6 -7 4 8 12 21
20 28 11 11 13 8 13 -18 0 -28 -3 -31 -27 -28 -22 2 -29 9 -31 32 -2 18 0 26
7 21 6 -3 11 -16 12 -28z m-576 -7 c1 -11 -2 -20 -7 -20 -4 0 -8 7 -8 15 0 9
-6 12 -16 8 -13 -5 -13 -7 -2 -14 10 -7 9 -9 -4 -9 -9 0 -20 5 -23 10 -3 6
-12 10 -18 10 -7 0 -6 -4 3 -10 13 -8 12 -10 -2 -10 -10 0 -18 7 -18 15 0 21
-18 19 -23 -2 -4 -14 -5 -13 -6 4 -1 21 3 23 49 22 28 -1 54 1 57 5 9 9 17 -1
18 -24z m225 20 c0 -5 7 -7 15 -4 22 9 18 -9 -5 -24 -16 -10 -20 -10 -20 0 0
9 -4 8 -11 -2 -8 -12 -12 -12 -16 -2 -4 10 -8 10 -18 2 -11 -9 -14 -7 -12 9 1
13 6 20 14 17 7 -3 13 -1 13 4 0 6 9 10 20 10 11 0 20 -4 20 -10z m-971 -22
c0 -22 -1 -22 -9 -3 -9 20 -9 20 -10 0 -2 -17 -3 -17 -7 -2 -2 9 -8 17 -13 17
-5 0 -11 -8 -13 -17 -4 -14 -5 -12 -6 5 -1 18 4 22 29 22 25 0 30 -4 29 -22z
m611 -3 c0 -16 -6 -25 -15 -25 -9 0 -15 9 -15 25 0 16 6 25 15 25 9 0 15 -9
15 -25z m640 6 c0 -15 -7 -19 -32 -18 -47 3 -50 31 -3 34 29 3 35 0 35 -16z"/>
<path d="M513 1363 c-7 -2 -13 -14 -13 -26 0 -19 1 -20 13 -3 7 9 17 17 22 16
22 -5 45 1 45 10 0 10 -45 12 -67 3z"/>
<path d="M297 1193 c-4 -3 -7 -22 -7 -42 1 -30 2 -33 11 -18 6 10 9 27 6 38
-3 10 -2 19 3 19 12 0 18 -36 8 -53 -7 -13 -5 -15 7 -11 18 7 20 45 3 62 -14
14 -22 15 -31 5z"/>
<path d="M155 1099 c-21 -8 -7 -13 27 -10 10 1 18 -7 21 -21 4 -23 4 -23 6 -1
1 27 -26 44 -54 32z"/>
<path d="M761 1015 c-13 -6 -45 -11 -72 -11 -48 1 -48 1 -44 -26 3 -16 1 -28
-5 -28 -5 0 -10 8 -10 18 -1 15 -2 15 -10 1 -12 -20 -70 -23 -70 -3 0 24 -15
16 -27 -15 -12 -34 -69 -54 -84 -30 -5 9 -4 15 5 17 8 2 12 11 9 23 -6 20 -25
28 -20 8 1 -6 -4 -14 -10 -16 -8 -3 -13 4 -13 16 0 14 6 21 20 21 11 0 20 5
20 11 0 15 -137 9 -151 -7 -6 -7 -9 -21 -6 -31 4 -14 5 -13 6 5 1 13 7 22 17
22 9 0 12 -5 8 -12 -6 -10 -4 -10 7 0 7 6 26 12 41 12 23 0 28 -4 27 -22 0
-22 -1 -22 -9 -3 -7 15 -9 16 -9 4 -1 -10 -10 -16 -23 -16 -39 -1 -48 -3 -46
-10 1 -5 -3 -18 -11 -31 -7 -13 -10 -28 -7 -35 2 -7 5 -4 5 6 1 14 10 17 51
17 42 0 50 -3 50 -19 0 -14 -7 -18 -30 -17 -17 1 -35 8 -40 16 -8 12 -10 10
-10 -8 0 -17 7 -24 30 -28 33 -7 36 -14 18 -33 -11 -10 -9 -11 7 -5 11 4 25
11 31 15 6 5 23 3 37 -4 32 -14 37 -46 7 -44 -14 1 -19 6 -15 17 4 13 3 13 -7
-1 -9 -11 -19 -14 -33 -8 -32 12 -40 10 -19 -6 10 -8 33 -15 50 -15 39 0 48
-9 26 -26 -14 -11 -15 -13 -1 -14 8 0 20 5 27 12 9 9 12 9 12 -2 0 -13 2 -13
10 0 8 13 10 12 10 -4 0 -15 3 -16 15 -6 12 10 16 9 21 -3 3 -9 3 -20 0 -26
-10 -15 -46 -9 -47 9 0 12 -2 11 -7 -2 -6 -16 -10 -16 -35 -3 -25 13 -26 13
-17 -5 13 -25 13 -30 -5 -30 -15 0 -41 -38 -32 -47 3 -2 10 5 17 16 15 29 50
28 50 -1 1 -21 2 -21 11 -5 8 14 14 16 25 6 10 -8 14 -8 14 0 0 6 5 11 10 11
6 0 10 -8 10 -17 0 -15 2 -14 14 3 8 10 18 15 22 11 5 -4 2 -12 -6 -17 -10 -7
-11 -10 -2 -10 6 0 12 -4 12 -8 0 -7 -46 -7 -127 0 -7 1 -13 8 -13 17 -1 13
-3 12 -11 -3 -16 -27 4 -36 78 -36 81 0 90 4 85 41 -4 24 -1 28 12 23 10 -4
15 -12 12 -19 -3 -8 6 -12 26 -13 23 -1 27 2 19 12 -12 14 -5 26 15 26 8 0 12
-11 10 -27 -2 -23 -6 -28 -26 -25 -20 2 -22 0 -10 -8 18 -12 112 -3 121 12 4
6 4 19 2 29 -3 10 0 19 6 19 6 0 11 -10 11 -22 0 -21 0 -21 14 -2 8 11 18 15
23 10 4 -5 2 -11 -5 -13 -9 -4 -6 -11 10 -25 20 -17 35 -19 110 -16 58 2 91 8
100 17 11 12 10 13 -7 6 -18 -7 -90 -9 -140 -4 -11 1 -27 0 -35 -2 -10 -3 -16
5 -18 25 -2 19 0 26 8 21 6 -4 9 -13 6 -21 -3 -8 -1 -14 4 -14 6 0 10 8 10 18
0 10 7 19 15 19 8 0 15 -7 15 -16 0 -11 3 -12 11 -4 6 6 17 9 24 7 7 -3 16 -1
20 5 12 20 26 11 20 -11 -5 -19 -4 -20 5 -6 7 11 19 15 38 12 24 -4 25 -3 8 7
-11 7 -42 14 -69 16 -28 2 -57 9 -65 16 -12 9 -16 9 -19 0 -3 -7 -13 -13 -24
-13 -16 0 -18 3 -9 19 5 11 7 33 4 49 l-6 30 65 -1 c90 -1 147 36 98 63 -25
13 -143 21 -204 13 -47 -6 -49 -7 -43 -34 4 -22 2 -29 -10 -29 -10 0 -14 6
-10 15 3 9 0 15 -10 15 -28 0 -10 -35 21 -41 24 -5 26 -7 13 -13 -34 -15 -53
-3 -53 34 0 28 4 34 18 32 9 -2 17 2 17 8 0 5 -13 10 -30 10 -35 0 -41 17 -7
22 18 2 22 9 22 38 0 33 -2 35 -32 32 -33 -3 -52 13 -35 30 8 8 15 8 26 -1 8
-7 25 -9 40 -5 15 3 32 2 39 -4 8 -7 186 -10 518 -9 278 0 511 -3 517 -7 7 -4
27 -4 45 0 17 4 52 7 77 6 223 -2 358 -2 374 1 15 3 19 13 20 45 l1 41 -260
-5 c-143 -2 -269 -4 -280 -3 -30 2 -256 7 -290 7 -65 -1 -141 0 -165 2 -27 2
-178 -8 -221 -15 -14 -2 -36 3 -48 12 -18 12 -36 14 -84 8 -89 -11 -129 -12
-158 -4 -14 4 -35 1 -48 -6z m794 -27 c33 3 45 0 45 -9 0 -11 2 -12 9 -1 13
20 115 12 119 -10 2 -13 -4 -16 -27 -16 -17 1 -28 5 -25 9 2 4 -10 4 -28 -2
-45 -13 -58 -11 -58 6 0 8 -4 15 -10 15 -5 0 -7 -6 -4 -13 3 -9 -9 -13 -46
-14 -37 0 -50 3 -50 14 0 19 24 45 28 29 2 -7 19 -10 47 -8z m416 -5 c1 -17 3
-21 6 -10 3 13 15 17 53 17 41 0 49 -3 47 -19 -1 -13 -9 -18 -29 -19 -15 0
-30 4 -33 9 -4 5 -12 9 -18 9 -7 0 -6 -4 3 -10 11 -7 7 -9 -15 -7 -25 2 -31 7
-33 30 -2 15 1 27 7 27 6 0 12 -12 12 -27z m329 -2 c0 -26 -3 -29 -34 -29 -28
0 -33 3 -29 19 8 28 -6 23 -17 -7 -7 -18 -15 -24 -26 -20 -9 3 -20 6 -25 6 -5
0 -9 10 -9 23 0 21 4 23 49 23 40 0 48 -3 44 -15 -4 -11 2 -8 18 7 13 12 25
22 26 22 2 0 3 -13 3 -29z m-1468 -5 c6 -8 8 -7 8 1 0 7 10 13 23 13 12 0 59
2 105 5 l82 6 0 -28 c0 -22 -2 -25 -10 -13 -7 10 -13 11 -17 5 -9 -12 -23 -13
-40 -2 -6 4 -14 3 -18 -3 -9 -15 -45 -12 -51 5 -4 8 -10 15 -15 15 -4 0 -6 -6
-3 -14 4 -11 -9 -13 -65 -12 -67 1 -71 2 -71 24 0 21 3 23 33 17 17 -4 35 -13
39 -19z m499 7 c0 -11 3 -13 6 -5 5 13 59 17 67 4 15 -24 -56 -41 -81 -20 -9
7 -13 7 -13 -1 0 -16 -42 -10 -48 7 -2 6 7 16 20 21 35 15 48 13 49 -6z m566
-16 c3 -21 2 -21 -12 -3 -13 17 -15 18 -15 3 0 -9 -7 -17 -15 -17 -25 0 -18
38 8 42 28 5 30 3 34 -25z m43 8 c0 -16 -6 -25 -15 -25 -9 0 -15 9 -15 25 0
16 6 25 15 25 9 0 15 -9 15 -25z m207 -5 c2 -11 -2 -20 -7 -20 -6 0 -10 8 -11
18 0 14 -2 14 -9 -3 -9 -20 -9 -20 -10 0 -1 20 -1 20 -10 0 -8 -19 -9 -19 -9
2 -1 15 6 23 22 25 27 5 30 3 34 -22z m-1417 5 c0 -8 -9 -15 -20 -15 -11 0
-20 7 -20 15 0 8 9 15 20 15 11 0 20 -7 20 -15z m490 -6 c0 -12 -5 -19 -12
-16 -7 2 -12 9 -11 15 2 6 -4 9 -13 5 -13 -5 -13 -7 -2 -14 10 -7 9 -9 -4 -9
-10 0 -18 7 -18 15 0 21 -18 19 -23 -2 -4 -14 -5 -12 -6 5 -1 20 4 22 44 22
39 0 45 -3 45 -21z m610 -4 c0 -14 -6 -25 -13 -25 -7 0 -14 11 -15 25 -1 16 3
25 13 25 9 0 15 -10 15 -25z m-1210 -55 c0 -5 7 -10 15 -10 8 0 15 -8 15 -18
0 -15 -8 -19 -40 -18 -29 0 -40 5 -41 16 0 10 -3 9 -9 -5 -6 -13 -9 -15 -9 -5
-1 13 -2 13 -11 0 -9 -13 -12 -12 -25 4 -13 17 -15 18 -15 3 0 -9 -4 -17 -10
-17 -5 0 -10 9 -10 21 0 18 5 20 56 17 40 -3 58 0 61 9 6 15 23 18 23 3z
m-183 -29 c2 -15 -1 -21 -9 -19 -7 3 -15 15 -16 27 -3 15 1 22 9 19 7 -2 14
-14 16 -27z m139 -85 c2 -14 0 -26 -6 -26 -5 0 -10 7 -10 15 0 8 -8 15 -17 15
-14 0 -15 -2 -4 -9 10 -7 10 -10 1 -16 -7 -4 -16 -1 -21 6 -6 10 -9 11 -9 2 0
-7 -7 -13 -15 -13 -9 0 -15 9 -15 21 0 16 5 20 20 16 11 -3 23 -1 26 4 3 5 9
7 14 4 5 -3 12 0 15 6 9 14 15 7 21 -25z m72 4 c0 -19 -4 -30 -13 -30 -9 0
-13 9 -11 28 4 33 4 32 14 32 5 0 9 -13 10 -30z m182 15 c0 6 9 11 20 11 11 0
20 -3 20 -7 0 -15 36 -15 53 -1 11 10 17 11 17 4 0 -7 15 -12 35 -12 34 0 46
-12 25 -25 -20 -13 -90 -14 -90 -2 0 8 -3 8 -9 -1 -9 -14 -31 -13 -44 3 -6 6
-10 6 -14 -2 -7 -18 -33 -16 -33 2 0 8 -8 15 -17 15 -14 0 -15 -2 -4 -9 10 -7
10 -10 1 -16 -16 -10 -32 16 -19 32 6 6 17 9 25 6 8 -3 14 1 14 8 0 11 3 11
10 -1 5 -8 10 -10 10 -5z m-143 -24 c2 -15 -1 -21 -9 -19 -7 3 -15 15 -16 27
-3 15 1 22 9 19 7 -2 14 -14 16 -27z m-113 -85 c6 -30 11 -35 39 -38 18 -2 31
-7 29 -13 -2 -5 -11 -9 -20 -7 -9 2 -34 3 -54 2 -21 0 -38 4 -38 10 0 5 9 10
20 10 11 0 20 1 20 3 0 1 -4 17 -9 35 -5 17 -6 32 -1 32 4 0 11 -15 14 -34z
m36 12 c1 -21 2 -21 11 -5 6 9 14 15 20 12 5 -4 9 0 9 7 0 9 3 9 10 -2 9 -13
11 -13 20 0 7 11 10 11 10 2 0 -7 4 -11 9 -7 5 3 12 1 16 -5 4 -7 14 -5 28 5
30 21 47 19 47 -6 0 -21 0 -21 20 2 l19 24 1 -32 c0 -29 -3 -31 -27 -29 -19 2
-29 10 -33 26 -5 22 -6 22 -19 -6 -9 -19 -15 -24 -19 -15 -3 9 -7 10 -11 2 -5
-7 -17 -8 -39 -2 -17 5 -34 6 -37 2 -2 -5 -15 -8 -27 -7 -17 1 -24 8 -26 29
-2 15 1 27 7 27 6 0 11 -10 11 -22z m202 -57 c4 -3 -15 -7 -43 -8 -47 -2 -68
11 -31 20 19 5 63 -2 74 -12z"/>
<path d="M2336 1004 c-9 -8 -16 -18 -16 -22 1 -30 60 -40 60 -10 0 15 8 17 48
17 26 -1 53 0 61 2 7 2 15 -6 17 -18 2 -13 -1 -23 -6 -23 -6 0 -10 8 -10 18
-1 15 -2 15 -10 1 -12 -20 -70 -23 -70 -3 0 8 -4 14 -10 14 -5 0 -10 -8 -10
-18 0 -16 9 -19 59 -21 33 -1 62 3 66 9 3 5 15 10 26 10 14 0 19 7 19 25 0 14
-4 25 -10 25 -5 0 -10 -7 -10 -15 0 -8 -4 -15 -10 -15 -5 0 -10 7 -10 16 0 13
-12 15 -72 13 -40 -2 -78 0 -85 4 -6 4 -19 0 -27 -9z"/>
<path d="M2579 1018 c0 -2 -1 -19 -3 -40 -3 -35 -1 -36 32 -40 65 -8 79 48 18
70 -32 12 -45 14 -47 10z"/>
<path d="M505 989 c-4 -12 -2 -26 4 -32 8 -8 11 -5 11 12 0 19 5 22 33 21 55
-3 77 0 77 10 0 6 -26 10 -59 10 -52 0 -61 -3 -66 -21z"/>
<path d="M319 551 c9 -18 3 -43 -13 -53 -6 -4 -1 -6 12 -5 20 1 28 15 23 41
-1 5 3 12 9 16 7 4 2 9 -14 12 -21 4 -24 2 -17 -11z"/>
<path d="M425 382 c15 -11 12 -46 -5 -54 -11 -5 -8 -7 8 -7 19 -1 23 4 21 22
-2 12 0 27 3 32 4 6 -3 12 -15 12 -12 1 -17 -1 -12 -5z"/>
<path d="M2665 381 c-4 -7 0 -8 11 -4 14 5 16 3 11 -11 -4 -10 -7 -23 -7 -29
0 -6 -7 -2 -15 9 -8 10 -15 14 -15 8 0 -20 24 -31 76 -33 l51 -2 -5 30 c-3 24
-9 31 -28 31 -12 0 -25 -4 -28 -9 -3 -4 6 -6 19 -3 21 4 25 0 25 -19 0 -19 -2
-21 -10 -9 -6 10 -10 11 -10 3 0 -7 -9 -13 -19 -13 -14 0 -21 8 -23 27 -3 28
-22 41 -33 24z"/>
<path d="M971 358 c-1 -14 -7 -29 -13 -31 -7 -3 14 -5 47 -5 52 1 55 2 20 7
-31 5 -41 11 -46 31 l-7 25 -1 -27z"/>
<path d="M1175 371 c10 -4 34 -6 52 -4 28 3 33 0 33 -17 0 -18 -7 -20 -57 -21
l-58 -1 50 -8 c28 -4 61 -6 75 -4 14 1 35 3 48 3 18 1 22 6 21 29 -2 23 -2 24
-6 5 -2 -13 -11 -23 -18 -23 -7 0 -16 10 -18 23 l-4 22 -2 -22 c0 -13 -6 -23
-12 -23 -6 0 -9 10 -7 23 4 23 2 24 -56 25 -39 1 -54 -2 -41 -7z"/>
<path d="M1358 372 c7 -5 10 -16 6 -25 -7 -18 0 -22 55 -31 19 -4 32 -3 28 0
-4 4 -1 14 6 23 10 14 10 14 -5 3 -13 -10 -17 -10 -21 0 -4 10 -6 10 -6 1 -1
-7 -12 -13 -25 -13 -19 0 -22 4 -18 25 3 19 0 25 -14 25 -14 0 -15 -3 -6 -8z"/>
<path d="M1530 370 c8 -5 23 -7 33 -4 12 4 17 0 17 -15 0 -16 -6 -21 -25 -21
-14 0 -25 -4 -25 -8 0 -4 15 -6 33 -4 30 3 33 6 29 33 -4 26 -8 29 -41 29 -27
0 -32 -3 -21 -10z"/>
<path d="M1651 362 c-18 -33 2 -45 75 -44 114 0 183 5 147 9 -24 3 -33 10 -35
26 -3 20 -9 22 -73 22 -65 0 -70 -2 -73 -22 -2 -13 -10 -23 -18 -23 -17 0 -19
36 -1 43 9 4 9 6 0 6 -7 1 -17 -7 -22 -17z m109 -4 c0 -9 3 -9 8 -3 4 6 19 12
35 13 22 1 27 -2 27 -21 0 -18 -2 -19 -10 -7 -6 10 -10 11 -10 3 0 -8 -15 -13
-40 -13 -31 0 -40 4 -40 18 -1 15 -2 15 -15 -2 -15 -19 -15 -19 -15 2 0 18 6
22 30 22 17 0 30 -5 30 -12z"/>
<path d="M2248 373 c17 -7 15 -43 -3 -43 -8 0 -15 8 -16 18 0 11 -2 12 -6 4
-6 -16 15 -42 33 -42 8 0 13 3 13 8 -6 35 3 49 31 50 39 1 47 -14 21 -42 -25
-26 -26 -36 -6 -36 9 0 15 -10 16 -22 1 -16 3 -18 6 -6 6 24 70 22 76 -3 4
-14 4 -13 3 3 -1 19 -8 24 -36 26 -58 5 -63 8 -44 37 24 36 5 55 -55 54 -25 0
-40 -3 -33 -6z"/>
<path d="M2403 364 c-2 -7 -3 -21 0 -31 3 -12 5 -8 6 10 1 31 31 39 31 7 0
-11 -4 -20 -10 -20 -5 0 -10 -3 -10 -7 0 -5 30 -6 67 -4 38 2 60 6 51 8 -19 5
-25 38 -8 46 6 3 5 4 -2 3 -7 -1 -14 -12 -16 -24 -5 -31 -62 -32 -62 -1 0 16
4 19 20 14 11 -3 20 -2 20 4 0 15 -81 11 -87 -5z"/>
<path d="M2011 350 c-1 -20 -3 -22 -11 -10 -6 9 -10 10 -10 3 0 -6 -10 -14
-22 -16 -13 -3 -9 -4 11 -4 34 1 47 15 38 39 -3 7 -6 2 -6 -12z"/>
<path d="M620 347 c0 -11 -9 -15 -32 -15 -18 1 -36 5 -39 10 -3 5 -9 3 -12 -6
-5 -13 2 -16 39 -16 31 0 46 5 51 15 3 9 3 19 -1 22 -3 4 -6 -1 -6 -10z"/>
<path d="M640 353 c0 -18 37 -40 62 -37 13 1 39 3 58 3 19 1 30 5 24 9 -6 4
-14 14 -17 22 -4 11 -6 10 -6 -5 -1 -17 -3 -17 -11 -5 -6 10 -10 11 -10 3 0
-21 -77 -16 -89 5 -6 9 -11 12 -11 5z"/>
<path d="M2081 353 c0 -6 -4 -18 -7 -27 -5 -12 2 -14 35 -12 53 4 66 16 18 16
-25 0 -37 5 -40 18 -3 9 -5 12 -6 5z"/>
<path d="M2790 350 c-11 -7 -11 -10 -2 -10 7 0 10 -5 7 -10 -5 -7 16 -10 61
-8 50 2 68 7 71 18 3 9 1 11 -4 4 -4 -6 -31 -12 -60 -13 -39 -2 -52 1 -55 13
-2 11 -7 13 -18 6z"/>
<path d="M533 293 c4 -3 8 -14 8 -26 1 -16 3 -17 6 -5 3 11 14 16 34 16 16 -1
32 2 36 5 3 4 -10 7 -30 7 -19 0 -41 2 -49 3 -7 2 -10 2 -5 0z"/>
<path d="M983 294 c-7 -3 -13 -17 -13 -30 0 -14 4 -23 10 -19 5 3 7 12 4 19
-3 8 0 17 6 21 17 11 22 0 11 -27 -8 -23 -7 -24 27 -25 31 -1 33 0 12 6 -31 9
-33 36 -3 36 11 0 25 3 29 8 4 4 -1 7 -12 7 -10 0 -28 2 -39 5 -11 2 -26 2
-32 -1z"/>
<path d="M1315 293 c12 -9 15 -53 4 -53 -4 0 -9 10 -11 23 -3 21 -8 22 -93 25
-49 1 -85 -1 -79 -5 6 -5 14 -15 17 -23 5 -13 6 -12 6 1 1 25 134 22 139 -3 2
-10 -1 -18 -7 -18 -6 0 -11 -3 -11 -7 0 -5 24 -6 53 -5 51 3 54 5 49 28 -2 13
-7 26 -11 28 -14 8 -65 16 -56 9z m55 -33 c0 -21 -24 -28 -35 -10 -8 14 3 30
21 30 8 0 14 -9 14 -20z"/>
<path d="M1540 291 c-90 -6 -95 -7 -96 -29 -1 -19 -1 -19 3 -2 4 17 12 20 50
18 25 -1 52 -8 61 -17 14 -15 15 -14 9 2 -3 9 -2 17 3 17 6 0 10 -9 10 -20 0
-23 -20 -26 -39 -7 -10 10 -12 9 -9 -3 2 -8 -3 -15 -9 -14 -7 1 -20 2 -28 3
-8 0 -15 8 -15 17 0 8 -4 12 -10 9 -33 -20 25 -47 83 -39 40 6 43 9 39 30 -3
20 0 24 19 25 13 1 27 1 32 0 4 0 7 4 7 9 0 6 -3 9 -7 8 -5 -1 -51 -4 -103 -7z"/>
<path d="M1711 289 c-26 -10 -27 -15 -1 -15 11 0 20 3 20 6 0 3 16 5 35 6 36
0 39 -3 29 -30 -8 -21 -21 -20 -27 2 -4 16 -5 16 -6 -1 -1 -15 -9 -17 -51 -15
-32 2 -50 8 -50 16 0 6 -5 12 -11 12 -6 0 -9 -7 -5 -15 3 -8 1 -15 -4 -15 -6
0 -10 7 -10 15 0 9 -6 12 -16 8 -15 -6 -15 -8 2 -20 14 -10 61 -13 196 -13
l178 1 0 30 c0 19 -5 29 -15 29 -12 0 -13 -4 -6 -19 12 -22 5 -31 -26 -31 -21
0 -28 15 -25 51 1 3 -14 3 -31 0 -24 -4 -27 -6 -12 -9 19 -4 35 -19 35 -34 0
-5 -24 -8 -54 -8 l-55 0 9 29 c8 29 8 29 -35 28 -23 0 -52 -4 -64 -8z"/>
<path d="M2219 271 c3 -19 6 -21 9 -8 3 17 23 23 35 11 12 -12 -6 -34 -29 -34
-17 0 -27 8 -34 24 -9 24 -12 24 -102 23 -74 -2 -93 -5 -95 -17 -7 -36 11 -41
144 -41 72 0 138 3 147 7 9 3 16 16 15 28 0 21 0 21 -11 -1 -12 -25 -34 -32
-25 -9 7 16 -8 31 -39 38 -18 5 -20 2 -15 -21z m-137 -6 c5 -6 8 -6 8 2 0 6
13 11 30 11 22 -1 30 -6 30 -20 0 -11 -7 -18 -20 -18 -11 0 -20 6 -20 13 0 8
-3 8 -8 2 -4 -6 -24 -12 -44 -14 -33 -2 -38 0 -38 18 0 16 6 20 28 19 15 -1
30 -7 34 -13z m108 -5 c0 -11 -7 -20 -15 -20 -8 0 -15 9 -15 20 0 11 7 20 15
20 8 0 15 -9 15 -20z"/>
<path d="M2432 265 c0 -19 4 -32 9 -29 5 3 9 16 9 29 0 13 -4 26 -9 29 -5 3
-9 -10 -9 -29z"/>
<path d="M678 281 c14 -8 71 -5 80 4 3 3 -17 5 -44 5 -30 0 -44 -3 -36 -9z"/>
<path d="M797 266 c5 -22 1 -24 -31 -24 -20 0 -33 4 -30 9 3 5 0 9 -5 9 -6 0
-11 -4 -11 -10 0 -13 -27 -13 -33 0 -3 6 -4 5 -3 -2 2 -9 30 -13 102 -14 54
-1 89 0 77 3 -20 4 -28 20 -24 46 0 4 -4 7 -10 7 -7 0 -9 -10 -7 -25 3 -14 1
-25 -3 -25 -5 0 -9 9 -9 19 0 11 -4 22 -9 25 -4 3 -6 -5 -4 -18z"/>
<path d="M1114 250 c1 -11 19 -16 74 -20 39 -3 72 -2 72 3 0 4 -19 7 -41 7
-38 0 -40 1 -28 18 13 16 13 16 -7 0 -24 -21 -61 -24 -67 -5 -2 7 -3 6 -3 -3z"/>
<path d="M152 244 c-11 -12 -10 -14 3 -14 8 0 15 -5 15 -11 0 -5 -4 -8 -9 -4
-16 9 -20 -9 -5 -23 8 -7 14 -8 14 -2 0 5 7 10 16 10 13 0 14 3 5 14 -9 11 -9
15 1 19 9 4 7 6 -4 6 -9 1 -18 5 -20 10 -1 5 -9 3 -16 -5z"/>
<path d="M2375 250 c-3 -5 -18 -10 -32 -10 -29 0 -27 -8 3 -14 11 -3 26 -7 35
-11 10 -3 20 -1 25 6 5 9 2 10 -11 6 -14 -6 -16 -3 -12 13 6 22 2 26 -8 10z"/>
<path d="M1313 203 c-82 -8 -83 -59 -1 -65 27 -1 52 0 55 5 4 6 -10 9 -34 6
-4 0 -10 8 -14 18 -7 17 -8 17 -8 0 -1 -23 -46 -20 -46 3 0 10 11 15 35 16 20
0 41 3 48 8 6 4 17 4 23 0 7 -4 25 -7 40 -6 23 0 29 -4 29 -19 0 -13 -6 -20
-17 -18 -28 2 -43 0 -43 -8 0 -5 37 -7 82 -5 45 2 77 7 71 10 -5 4 -13 14 -16
22 -4 11 -6 10 -6 -5 -1 -17 -3 -17 -11 -5 -6 10 -10 11 -10 3 0 -7 -9 -13
-20 -13 -15 0 -20 7 -20 25 0 21 -5 25 -27 25 -16 0 -37 2 -48 4 -11 1 -39 1
-62 -1z"/>
<path d="M2075 200 c-11 -5 -15 -9 -9 -9 14 -1 26 -41 13 -41 -5 0 -9 6 -9 13
0 8 -3 8 -9 -2 -7 -11 -10 -7 -14 15 l-4 29 -2 -32 -1 -33 60 0 c58 0 60 1 60
26 0 18 5 25 18 23 41 -4 43 4 2 11 -25 4 -52 3 -60 -1 -12 -8 -11 -9 4 -7 13
2 20 -4 21 -19 1 -13 -2 -23 -7 -23 -4 0 -8 7 -8 15 0 8 -5 15 -11 15 -6 0 -8
-7 -5 -16 4 -10 1 -14 -6 -11 -7 2 -13 16 -13 30 1 15 1 27 0 26 0 0 -9 -4
-20 -9z"/>
<path d="M2314 202 c-11 -7 -34 -45 -34 -56 0 -18 20 -1 29 24 5 17 14 30 20
30 23 0 41 -14 41 -31 0 -27 -28 -24 -32 3 -3 21 -4 21 -15 -5 l-13 -27 104 0
c56 0 106 3 109 6 3 4 2 15 -3 25 -8 14 -6 17 10 16 15 -1 18 -7 14 -27 l-5
-25 15 25 c21 35 20 36 -16 36 -28 -1 -33 -5 -32 -24 0 -12 -3 -22 -8 -22 -4
0 -8 9 -8 20 0 13 -5 18 -14 14 -8 -3 -12 -12 -9 -20 3 -8 0 -14 -6 -14 -6 0
-11 9 -11 19 0 11 -4 22 -9 25 -5 4 -8 -5 -6 -19 3 -32 -17 -28 -27 6 -7 23
-7 22 -4 -3 2 -18 -1 -28 -10 -28 -7 0 -14 12 -16 27 -2 20 -9 27 -28 30 -14
1 -30 -1 -36 -5z"/>
<path d="M2574 176 l-11 -36 193 0 194 0 -1 23 c-1 16 -2 18 -6 5 -7 -28 -52
-23 -63 7 -7 17 -17 25 -34 25 -20 0 -24 -4 -21 -25 1 -14 -2 -25 -6 -25 -8 0
-13 23 -10 43 0 4 -4 7 -10 7 -7 0 -9 -10 -7 -25 4 -17 1 -25 -8 -25 -8 0 -11
6 -8 15 4 8 1 15 -5 15 -6 0 -11 -7 -11 -16 0 -11 -5 -14 -16 -10 -9 3 -22 6
-30 6 -8 0 -14 5 -14 10 0 6 7 10 15 10 8 0 15 4 15 8 0 8 -6 10 -90 18 l-55
5 -11 -35z m117 -2 c6 -18 2 -20 -47 -22 -51 -1 -54 0 -54 24 0 24 2 25 47 21
35 -3 48 -8 54 -23z m179 -4 c0 -11 -7 -20 -15 -20 -8 0 -15 9 -15 20 0 11 7
20 15 20 8 0 15 -9 15 -20z"/>
<path d="M406 191 c-4 -5 3 -7 14 -4 15 4 20 0 20 -16 0 -23 -19 -28 -40 -8
-12 10 -12 9 -1 -5 7 -10 24 -18 36 -18 19 0 22 4 18 21 -4 12 0 25 8 30 10 6
4 9 -18 9 -17 0 -34 -4 -37 -9z"/>
<path d="M515 190 c-3 -6 1 -7 9 -4 11 4 16 0 16 -15 0 -12 -6 -21 -15 -21 -8
0 -15 -7 -15 -15 0 -12 -18 -15 -99 -15 -103 0 -127 -9 -119 -46 3 -18 84 -47
102 -37 5 4 105 8 220 9 116 1 216 2 222 3 5 0 10 16 10 35 0 31 -3 35 -33 38
-26 3 -32 1 -28 -10 3 -7 5 -20 5 -28 0 -8 4 -14 10 -14 5 0 7 7 4 15 -4 9 0
15 8 15 7 0 14 -9 15 -21 2 -16 -3 -20 -25 -17 -21 2 -28 9 -30 31 -3 27 -5
27 -75 28 -40 1 -64 3 -54 6 13 3 17 14 16 41 -2 30 -3 32 -6 10 -4 -26 -8
-28 -54 -28 -43 0 -49 3 -49 20 0 17 5 20 34 17 19 -2 40 0 48 4 8 5 -12 9
-49 9 -34 0 -65 -4 -68 -10z m35 -93 c0 -4 9 -3 20 3 25 13 41 5 34 -18 -3 -9
2 -6 10 8 10 16 15 19 16 10 0 -10 3 -11 8 -4 13 19 40 12 45 -13 3 -15 -1
-23 -9 -23 -7 0 -11 6 -8 14 3 8 1 17 -5 21 -7 3 -11 -2 -11 -14 0 -12 -4 -21
-10 -21 -5 0 -10 5 -10 11 0 8 -6 7 -17 -2 -13 -11 -17 -11 -20 -1 -3 6 -12
12 -21 12 -13 0 -14 -2 -3 -9 8 -5 -4 -9 -33 -9 -33 -1 -49 3 -53 13 -7 20
-21 19 -26 -2 -4 -14 -5 -13 -6 4 -1 13 6 23 17 25 29 7 82 3 82 -5z m-150
-17 c0 -22 -18 -30 -47 -19 -39 14 -29 35 17 37 23 0 30 -4 30 -18z m40 0 c0
-11 -7 -20 -15 -20 -8 0 -15 9 -15 20 0 11 7 20 15 20 8 0 15 -9 15 -20z m320
0 c0 -11 -7 -20 -15 -20 -8 0 -15 9 -15 20 0 11 7 20 15 20 8 0 15 -9 15 -20z"/>
<path d="M688 194 c-3 -3 -3 -17 1 -32 6 -20 14 -26 35 -27 32 0 53 23 43 49
-4 9 -17 16 -31 16 -20 0 -24 -4 -21 -25 1 -14 -2 -25 -6 -25 -8 0 -13 23 -10
43 1 8 -3 9 -11 1z m72 -24 c0 -11 -7 -20 -15 -20 -8 0 -15 9 -15 20 0 11 7
20 15 20 8 0 15 -9 15 -20z"/>
<path d="M813 193 c20 -5 23 -43 3 -43 -8 0 -17 8 -19 18 -4 13 -5 13 -6 -4
-1 -25 24 -35 54 -23 11 4 14 8 8 8 -20 1 -15 39 5 44 9 3 -1 5 -23 5 -22 0
-32 -2 -22 -5z"/>
<path d="M905 189 c-4 -6 -4 -13 -1 -16 3 -4 6 -1 6 5 0 7 18 11 50 11 43 -1
50 -5 50 -21 0 -18 -6 -19 -55 -16 -30 1 -55 -1 -55 -5 0 -5 35 -7 78 -5 74 3
77 4 74 27 -2 13 0 21 5 18 5 -3 15 -2 23 4 11 6 8 9 -14 9 -25 0 -28 -3 -24
-25 3 -14 1 -25 -4 -25 -5 0 -13 11 -18 25 -8 22 -15 25 -59 25 -27 0 -53 -5
-56 -11z"/>
<path d="M1151 178 c1 -19 2 -20 6 -5 3 12 11 17 23 14 10 -2 24 -1 31 4 9 6
1 9 -23 9 -33 0 -38 -3 -37 -22z"/>
<path d="M1640 180 c0 -11 5 -20 10 -20 6 0 10 7 10 15 0 8 7 15 15 15 8 0 15
-4 15 -10 0 -5 -6 -10 -12 -10 -9 0 -8 -4 2 -10 11 -7 6 -10 -22 -10 -27 0
-38 5 -41 18 -3 13 -4 12 -3 -3 1 -18 9 -20 66 -22 36 -1 55 1 42 5 -13 4 -23
10 -23 15 1 4 1 11 1 15 0 5 21 10 47 11 79 3 61 11 -25 11 -75 0 -82 -2 -82
-20z"/>
<path d="M1850 191 c14 -4 39 -6 56 -4 29 3 31 1 26 -22 -4 -24 -2 -26 30 -23
33 2 35 4 28 27 -6 25 -10 26 -86 28 -47 1 -69 -1 -54 -6z m126 -24 c1 -9 -4
-17 -11 -17 -17 0 -28 17 -20 31 9 14 28 6 31 -14z"/>
<path d="M2263 188 c-6 -7 -13 -20 -16 -28 -4 -12 -6 -11 -6 3 -1 9 -6 17 -12
17 -5 0 -8 -4 -4 -9 3 -5 0 -13 -6 -17 -6 -3 -14 -2 -18 4 -4 6 -11 5 -19 -4
-11 -12 -6 -14 31 -14 38 0 45 4 56 26 13 29 10 42 -6 22z"/>
<path d="M201 173 c-1 -22 -31 -34 -31 -13 0 6 -5 10 -12 10 -6 0 -8 -3 -5 -7
4 -3 0 -11 -8 -17 -25 -18 -36 -73 -19 -91 20 -20 71 -19 82 1 10 18 4 61 -10
70 -5 3 -4 11 2 19 7 8 10 22 7 32 -4 14 -5 13 -6 -4z m-43 -88 c-1 -14 -8
-25 -15 -25 -16 0 -17 16 -2 26 8 4 7 9 -2 15 -11 7 -10 9 3 9 13 0 17 -7 16
-25z"/>
<path d="M1074 159 l-11 -24 81 5 81 5 -67 3 c-52 2 -67 6 -70 19 -2 13 -6 11
-14 -8z"/>
<path d="M860 85 c0 -19 5 -35 10 -35 6 0 10 16 10 35 0 19 -4 35 -10 35 -5 0
-10 -16 -10 -35z"/>
<path d="M894 85 c0 -19 4 -35 8 -35 4 0 8 11 8 25 0 14 5 25 10 25 6 0 10
-12 10 -26 0 -14 4 -23 10 -19 22 14 7 49 -25 59 -18 5 -21 2 -21 -29z"/>
</g>
</svg>
